<?xml version="1.0" standalone="no"?>
<!DOCTYPE svg PUBLIC "-//W3C//DTD SVG 20010904//EN"
 "http://www.w3.org/TR/2001/REC-SVG-20010904/DTD/svg10.dtd">
<svg version="1.0" xmlns="http://www.w3.org/2000/svg"
 width="300.000000pt" height="249.000000pt" viewBox="0 0 300.000000 249.000000"
 preserveAspectRatio="xMidYMid meet">
<metadata>
Created by potrace 1.10, written by Peter Selinger 2001-2011
</metadata>
<g transform="translate(0.000000,249.000000) scale(0.100000,-0.100000)"
fill="#000000" stroke="none">
<path d="M1174 2341 c-27 -10 -66 -26 -85 -36 -37 -19 -158 -107 -159 -115 0
-3 13 -11 28 -18 32 -14 66 -43 81 -69 7 -13 14 -15 24 -8 61 43 105 68 162
91 70 28 95 53 95 95 0 33 -42 79 -72 78 -13 0 -46 -9 -74 -18z m98 -28 c21
-19 24 -56 6 -70 -7 -6 -36 -18 -63 -27 -28 -9 -75 -32 -105 -52 -47 -31 -55
-33 -63 -19 -5 9 -22 24 -38 34 l-29 18 43 30 c52 37 118 71 171 88 55 17 57
17 78 -2z"/>
<path d="M1502 2337 c-29 -31 -29 -78 1 -104 12 -11 45 -28 72 -37 43 -14 92
-42 157 -88 15 -11 20 -9 32 8 8 11 33 33 56 49 22 15 39 32 38 36 -8 23 -132
102 -200 129 -94 36 -127 38 -156 7z m140 -33 c67 -28 168 -89 168 -101 0 -5
-16 -20 -34 -36 l-35 -27 -43 28 c-24 16 -70 40 -103 53 -75 29 -85 36 -85 63
0 52 41 58 132 20z"/>
<path d="M802 2123 c-73 -36 -102 -128 -64 -200 71 -131 260 -95 288 56 9 45
-25 115 -68 141 -40 24 -110 26 -156 3z m137 -28 c29 -14 61 -68 61 -102 0
-50 -77 -123 -130 -123 -57 0 -120 64 -120 122 0 88 107 146 189 103z"/>
<path d="M1865 2130 c-43 -18 -78 -67 -83 -118 -5 -54 10 -92 52 -131 38 -35
122 -41 169 -12 92 57 88 210 -7 255 -36 17 -98 20 -131 6z m142 -53 c19 -18
27 -39 31 -76 4 -47 2 -53 -31 -86 -29 -29 -42 -35 -79 -35 -50 0 -82 18 -103
60 -28 53 -11 120 37 155 34 25 113 15 145 -18z"/>
<path d="M723 1803 c-21 -125 5 -311 47 -333 33 -18 75 -12 100 15 23 24 23
27 12 117 -6 51 -8 117 -5 146 5 50 5 52 -18 52 -13 0 -45 11 -71 25 -26 14
-49 25 -52 25 -3 0 -8 -21 -13 -47z m90 -23 c36 -11 37 -13 31 -45 -3 -19 0
-74 6 -124 10 -74 10 -94 0 -106 -20 -24 -63 -15 -77 16 -29 60 -37 302 -10
281 7 -5 29 -15 50 -22z"/>
<path d="M2019 1829 c-14 -11 -43 -23 -65 -26 l-39 -5 0 -101 c0 -56 -4 -121
-9 -144 -7 -37 -6 -44 17 -67 31 -31 75 -34 107 -8 40 32 62 193 44 326 -7 51
-16 55 -55 25z m31 -131 c0 -142 -31 -218 -84 -204 -31 8 -39 31 -26 76 6 19
10 71 10 115 l0 81 43 16 c30 11 44 12 49 4 4 -6 8 -46 8 -88z"/>
<path d="M940 1337 c-37 -19 -56 -60 -45 -93 14 -39 112 -115 217 -170 l88
-45 0 39 c0 22 7 59 15 82 8 24 14 44 13 44 -40 14 -128 68 -168 102 -28 24
-55 44 -60 44 -5 0 -14 2 -22 5 -7 3 -24 -1 -38 -8z m118 -78 c36 -28 81 -58
99 -67 24 -11 32 -21 27 -31 -3 -9 -8 -30 -11 -48 -5 -29 -7 -31 -30 -22 -36
13 -152 92 -190 127 -36 33 -39 43 -23 73 18 32 56 23 128 -32z"/>
<path d="M1795 1338 c-11 -6 -39 -28 -62 -48 -23 -20 -70 -50 -103 -66 -45
-21 -59 -32 -54 -44 20 -48 26 -92 16 -116 -14 -30 -7 -30 66 -1 111 46 252
158 252 201 0 31 -24 65 -53 76 -36 12 -37 12 -62 -2z m65 -38 c11 -11 20 -24
20 -29 0 -30 -117 -128 -197 -163 -24 -11 -46 -18 -47 -16 -6 7 -27 90 -24 92
2 2 18 9 37 16 19 8 66 38 104 67 39 29 74 53 79 53 4 0 17 -9 28 -20z"/>
<path d="M1329 1220 c-40 -21 -79 -87 -79 -131 0 -42 42 -111 80 -131 67 -35
142 -19 193 42 102 121 -54 297 -194 220z m150 -39 c60 -43 60 -134 1 -186
-34 -30 -120 -28 -154 4 -36 34 -50 82 -36 125 11 33 42 68 70 79 27 11 88 -1
119 -22z"/>
<path d="M250 1023 c0 -26 7 -158 16 -293 12 -173 21 -249 30 -259 7 -8 15
-13 18 -10 2 2 1 56 -3 119 -4 63 -7 116 -6 118 1 1 49 -51 105 -117 93 -108
120 -131 120 -100 0 6 -43 61 -95 122 -52 61 -95 116 -95 123 0 7 28 43 63 79
35 36 61 68 58 70 -15 15 -43 -2 -97 -61 l-62 -67 -7 129 c-4 71 -7 140 -8
152 -1 13 -9 28 -19 33 -16 9 -18 5 -18 -38z"/>
<path d="M1104 826 c-19 -19 -34 -41 -34 -50 0 -23 -17 -20 -25 5 -9 27 -66
53 -99 45 -15 -4 -35 -20 -45 -36 -13 -22 -20 -27 -29 -18 -6 6 -14 9 -17 6
-3 -3 1 -69 9 -146 9 -78 16 -144 16 -147 0 -3 6 -5 13 -5 10 0 12 24 9 104
-4 87 -1 110 16 149 52 118 122 53 122 -115 0 -58 2 -66 18 -61 14 3 17 17 19
66 3 98 45 197 83 197 32 0 49 -51 66 -197 17 -156 19 -167 35 -157 23 14 -18
343 -47 375 -27 30 -71 24 -110 -15z"/>
<path d="M2076 830 c-14 -17 -30 -50 -36 -73 -17 -64 -18 -65 -19 -19 -1 48
-17 86 -32 77 -20 -13 -4 -355 17 -355 8 0 15 23 19 67 20 215 77 328 150 295
47 -22 59 -64 63 -219 3 -120 6 -143 19 -143 13 0 15 21 11 148 -3 127 -7 153
-26 189 -26 50 -47 63 -100 63 -32 0 -45 -6 -66 -30z"/>
<path d="M653 833 c-24 -5 -70 -56 -55 -61 5 -1 33 6 61 18 56 22 82 17 96
-17 9 -21 22 -183 15 -183 -3 1 -16 7 -30 15 -14 8 -47 14 -73 15 -61 0 -97
-31 -97 -84 0 -49 37 -76 102 -76 61 0 138 19 145 35 8 24 -17 245 -34 286
-21 53 -55 67 -130 52z m71 -253 c14 -5 30 -19 37 -31 10 -20 9 -25 -11 -41
-42 -34 -150 -15 -150 28 0 16 57 54 82 54 9 0 28 -4 42 -10z"/>
<path d="M1755 809 c-37 -33 -75 -130 -75 -193 0 -152 120 -207 213 -97 53 64
60 166 18 249 -40 78 -96 93 -156 41z m112 -31 c68 -75 46 -230 -39 -274 -65
-34 -113 10 -113 105 1 137 90 236 152 169z"/>
<path d="M1383 789 c-42 -21 -64 -45 -77 -87 -6 -18 -4 -25 12 -29 31 -8 45
-134 41 -363 -4 -167 -2 -190 12 -190 12 0 17 24 27 123 7 67 12 146 12 175 0
51 0 52 30 52 64 0 144 51 176 112 21 40 18 117 -6 156 -44 71 -142 93 -227
51z m126 -25 c51 -10 91 -57 91 -106 0 -77 -64 -137 -162 -151 l-36 -5 -12 66
c-6 37 -14 91 -17 119 -6 52 -5 53 28 68 38 16 62 18 108 9z"/>
<path d="M2371 784 c-48 -60 -71 -253 -35 -288 31 -32 89 -12 142 48 34 39 37
37 47 -46 13 -107 -24 -208 -94 -255 -40 -27 -122 -31 -176 -9 -39 17 -39 15
-25 50 13 35 -16 36 -32 1 -9 -19 -7 -29 6 -50 22 -34 54 -45 128 -45 170 0
239 118 224 379 -13 213 -27 241 -116 241 -41 0 -52 -4 -69 -26z m115 -29 c34
-52 -11 -191 -74 -228 -27 -16 -35 -17 -49 -6 -13 11 -15 28 -10 96 6 81 15
111 45 146 23 26 68 22 88 -8z m31 -157 c-3 -7 -5 -2 -5 12 0 14 2 19 5 13 2
-7 2 -19 0 -25z"/>
</g>
</svg>
